HIERARCHY
ROOT Hips
{
	OFFSET 0.000000 89.005402 0.000000
	CHANNELS 6 Xposition Yposition Zposition Xrotation Yrotation Zrotation
	JOINT Spine
	{
		OFFSET 0.116900 10.681000 0.373400
		CHANNELS 3 Xrotation Yrotation Zrotation
		JOINT Spine1
		{
			OFFSET 0.000000 13.840401 0.053500
			CHANNELS 3 Xrotation Yrotation Zrotation
			JOINT Spine2
			{
				OFFSET 0.000000 14.712700 -0.366200
				CHANNELS 3 Xrotation Yrotation Zrotation
				JOINT Neck
				{
					OFFSET 0.000000 35.415497 -3.314200
					CHANNELS 3 Xrotation Yrotation Zrotation
					JOINT Head
					{
						OFFSET 0.000000 16.899200 1.218300
						CHANNELS 3 Xrotation Yrotation Zrotation
						JOINT HeadTop_End
						{
							OFFSET 0.000000 22.206207 2.192500
							CHANNELS 3 Xrotation Yrotation Zrotation
							End Site
							{
								OFFSET 0.000000 22.314178 0.000000
							}
						}
					}
				}
				JOINT LeftShoulder
				{
					OFFSET 12.896400 26.716293 -4.548400
					CHANNELS 3 Xrotation Yrotation Zrotation
					JOINT LeftArm
					{
						OFFSET 19.027000 -4.857010 -1.718400
						CHANNELS 3 Xrotation Yrotation Zrotation
						JOINT LeftForeArm
						{
							OFFSET 24.179897 0.000000 0.000000
							CHANNELS 3 Xrotation Yrotation Zrotation
							JOINT LeftHand
							{
								OFFSET 27.156403 0.000000 0.000000
								CHANNELS 3 Xrotation Yrotation Zrotation
								JOINT LeftHandIndex1
								{
									OFFSET 16.441200 0.000000 0.000000
									CHANNELS 3 Xrotation Yrotation Zrotation
									JOINT LeftHandIndex2
									{
										OFFSET 4.821899 0.000000 0.000000
										CHANNELS 3 Xrotation Yrotation Zrotation
										JOINT LeftHandIndex3
										{
											OFFSET 6.386497 0.000000 0.000000
											CHANNELS 3 Xrotation Yrotation Zrotation
											JOINT LeftHandIndex4
											{
												OFFSET 5.188988 0.000000 0.000000
												CHANNELS 3 Xrotation Yrotation Zrotation
												End Site
												{
													OFFSET -0.178703 5.185913 0.000177
												}
											}
										}
									}
								}
								JOINT LeftHandThumb1
								{
									OFFSET 6.534897 -5.032593 5.900300
									CHANNELS 3 Xrotation Yrotation Zrotation
									JOINT LeftHandThumb2
									{
										OFFSET 3.818176 -2.204422 2.204423
										CHANNELS 3 Xrotation Yrotation Zrotation
										JOINT LeftHandThumb3
										{
											OFFSET 3.252098 -1.877594 1.877601
											CHANNELS 3 Xrotation Yrotation Zrotation
											JOINT LeftHandThumb4
											{
												OFFSET 5.251778 -3.032120 3.032117
												CHANNELS 3 Xrotation Yrotation Zrotation
												End Site
												{
													OFFSET 0.000023 6.780014 0.000000
												}
											}
										}
									}
								}
							}
						}
					}
				}
				JOINT RightShoulder
				{
					OFFSET -12.896300 26.716293 -4.548400
					CHANNELS 3 Xrotation Yrotation Zrotation
					JOINT RightArm
					{
						OFFSET -19.027000 -4.857010 -1.718400
						CHANNELS 3 Xrotation Yrotation Zrotation
						JOINT RightForeArm
						{
							OFFSET -24.179897 0.000000 0.000000
							CHANNELS 3 Xrotation Yrotation Zrotation
							JOINT RightHand
							{
								OFFSET -27.156403 0.000000 0.000000
								CHANNELS 3 Xrotation Yrotation Zrotation
								JOINT RightHandThumb1
								{
									OFFSET -6.591202 -4.852203 5.988100
									CHANNELS 3 Xrotation Yrotation Zrotation
									JOINT RightHandThumb2
									{
										OFFSET -3.818176 -2.204422 2.204423
										CHANNELS 3 Xrotation Yrotation Zrotation
										JOINT RightHandThumb3
										{
											OFFSET -3.252098 -1.877594 1.877601
											CHANNELS 3 Xrotation Yrotation Zrotation
											JOINT RightHandThumb4
											{
												OFFSET -5.251778 -3.032120 3.032117
												CHANNELS 3 Xrotation Yrotation Zrotation
												End Site
												{
													OFFSET -0.000023 6.780014 0.000000
												}
											}
										}
									}
								}
								JOINT RightHandIndex1
								{
									OFFSET -16.029404 0.000000 0.000000
									CHANNELS 3 Xrotation Yrotation Zrotation
									JOINT RightHandIndex2
									{
										OFFSET -5.213303 0.000000 0.000000
										CHANNELS 3 Xrotation Yrotation Zrotation
										JOINT RightHandIndex3
										{
											OFFSET -6.386528 0.000000 0.000000
											CHANNELS 3 Xrotation Yrotation Zrotation
											JOINT RightHandIndex4
											{
												OFFSET -5.189026 0.000000 0.000000
												CHANNELS 3 Xrotation Yrotation Zrotation
												End Site
												{
													OFFSET 0.236702 5.183624 0.001972
												}
											}
										}
									}
								}
							}
						}
					}
				}
			}
		}
	}
	JOINT LeftUpLeg
	{
		OFFSET 14.073000 -7.904099 -1.463000
		CHANNELS 3 Xrotation Yrotation Zrotation
		JOINT LeftLeg
		{
			OFFSET -0.109806 -34.073280 4.093200
			CHANNELS 3 Xrotation Yrotation Zrotation
			JOINT LeftFoot
			{
				OFFSET 0.109806 -29.899420 -6.319000
				CHANNELS 3 Xrotation Yrotation Zrotation
				JOINT LeftToeBase
				{
					OFFSET 1.551100 -14.988700 20.535801
					CHANNELS 3 Xrotation Yrotation Zrotation
					JOINT LeftToe_End
					{
						OFFSET 0.221200 0.570800 13.248301
						CHANNELS 3 Xrotation Yrotation Zrotation
						End Site
						{
							OFFSET 0.000000 13.262435 0.000000
						}
					}
				}
			}
		}
	}
	JOINT RightUpLeg
	{
		OFFSET -13.839300 -7.904099 -1.463000
		CHANNELS 3 Xrotation Yrotation Zrotation
		JOINT RightLeg
		{
			OFFSET 0.109694 -34.073219 4.093300
			CHANNELS 3 Xrotation Yrotation Zrotation
			JOINT RightFoot
			{
				OFFSET -0.109694 -29.899384 -6.319200
				CHANNELS 3 Xrotation Yrotation Zrotation
				JOINT RightToeBase
				{
					OFFSET -1.551100 -14.988700 20.535801
					CHANNELS 3 Xrotation Yrotation Zrotation
					JOINT RightToe_End
					{
						OFFSET -0.221200 0.570900 13.248299
						CHANNELS 3 Xrotation Yrotation Zrotation
						End Site
						{
							OFFSET 0.000000 13.262440 0.000000
						}
					}
				}
			}
		}
	}
}
MOTION
Frames: 4
Frame Time: 0.033333
-2.215799 75.766785 3.927116 -21.147953 -31.913598 3.637078 14.770217 -0.903458 -4.415271 29.514521 -1.721856 -6.705818 29.514525 -1.721859 -6.705810 1.865621 4.451089 -6.518800 2.113182 7.328645 1.554782 0.000001 0.000000 -0.000000 -4.113441 1.671399 0.666187 -27.705780 8.108629 5.973639 -11.421891 -18.011689 -9.829112 -3.601883 -16.375587 34.301760 -0.901905 -6.981005 -3.808459 0.033509 0.804180 -16.419192 0.000000 -0.000005 -0.000001 -0.000000 -0.000001 0.000000 9.151372 4.793759 -5.501407 -0.313375 0.080619 0.791013 0.000004 0.000007 -0.000007 -0.000001 0.000002 -0.000002 -5.378302 -12.971002 -1.368821 -23.271064 -14.249959 -1.670385 -4.396307 27.833076 3.351018 1.715202 5.883119 -37.145492 -8.895833 -4.903112 -0.383558 7.904881 -19.192452 -2.856675 0.000004 0.000002 -0.000015 0.000001 0.000004 0.000002 -1.085531 -1.215505 4.525218 0.142104 -1.115646 16.942518 -0.000008 0.000005 0.000001 0.000002 0.000001 -0.000002 -73.949878 -0.474477 22.612146 122.668135 -6.974156 -1.670939 1.202108 0.896422 -16.554729 -1.476120 -0.000005 0.000002 -0.000001 -0.000000 -0.000001 -71.271911 -4.500465 -24.696999 126.826477 15.233144 0.938755 30.255265 4.104565 20.903461 2.803022 0.000018 -0.000005 -0.000001 -0.000004 0.000001 
-0.935288 77.735641 10.826903 -7.715135 -25.697914 4.449925 10.409188 0.161731 -2.276370 20.820488 0.328128 -3.792210 20.820488 0.328139 -3.792220 7.934362 1.246088 -3.037868 3.039525 2.743601 1.622321 0.000002 -0.000000 0.000000 -1.831058 -3.749865 -0.937500 -12.640172 14.910020 -3.627363 3.193073 -46.904313 -9.850538 -0.732063 -11.369366 25.467568 -0.896699 -6.911752 -2.805559 0.063039 0.907985 -15.533739 -0.000002 -0.000004 0.000004 -0.000001 -0.000001 0.000002 9.150456 4.792174 -5.501622 -0.311656 0.084326 0.791538 0.000003 0.000008 -0.000007 -0.000000 0.000001 0.000000 -1.983301 -0.881396 1.882351 -22.815764 -4.060676 -1.588380 2.056483 39.854150 3.857466 4.207598 8.608371 -22.880008 -8.804170 -4.940112 -0.371722 7.930659 -19.249789 -2.857277 0.000003 0.000004 -0.000013 -0.000000 -0.000001 0.000001 -1.082646 -1.251998 4.528134 0.141744 -1.114537 16.954218 -0.000007 0.000003 0.000003 -0.000001 0.000001 -0.000001 -61.490731 0.947669 21.658036 94.559270 -0.648935 -1.882176 9.277215 0.111522 -14.592342 -15.058552 3.082534 -4.311260 -0.000002 -0.000001 -0.000000 -53.911069 -4.341853 -21.395750 79.293121 7.345206 8.277559 30.992069 3.483769 18.560646 -32.877573 23.371963 -29.160516 -0.000000 0.000000 0.000000 
0.503802 80.417252 17.314459 5.682786 -18.875434 3.815147 6.092204 1.483168 0.402691 12.227609 2.243654 -0.767530 12.227609 2.243650 -0.767530 11.872250 -2.090399 0.964172 4.705025 -1.557327 1.520861 -0.000001 -0.000001 0.000001 0.120262 -8.943639 -4.712562 0.012029 12.226810 -14.913037 24.801182 -71.288515 -0.739862 5.660354 -6.656180 16.206029 -0.893930 -7.075173 -4.073125 0.024843 0.776168 -16.656989 -0.000000 -0.000004 0.000002 0.000000 0.000000 -0.000001 9.150020 4.791527 -5.501652 -0.310968 0.085901 0.791819 0.000002 0.000009 -0.000011 0.000000 -0.000001 0.000000 0.243067 11.927713 5.924362 -23.463744 5.794248 -1.446479 9.556518 50.335707 3.022799 6.171805 10.876238 -9.628931 -8.775161 -4.951001 -0.366676 7.938893 -19.268196 -2.857498 0.000005 0.000004 -0.000014 0.000001 0.000003 -0.000000 -1.081711 -1.263663 4.529063 0.141667 -1.114142 16.957971 -0.000002 0.000006 -0.000002 0.000001 0.000000 -0.000002 -50.292196 1.069709 19.117795 56.052262 2.490453 0.134621 18.228911 -0.680147 -15.594693 -20.983746 14.134895 -3.459883 -0.000000 -0.000000 -0.000000 -40.264170 -5.441705 -15.668625 50.480791 -5.660554 7.042872 -8.031152 -0.840265 1.814680 -6.445565 0.139014 0.803554 0.000000 0.000000 -0.000000 
0.735539 79.617638 22.160925 16.949949 -11.854964 4.615951 4.051342 1.350529 0.305744 8.093519 2.785905 0.660079 8.093515 2.785906 0.660077 10.644242 -4.450509 4.545857 5.699884 -3.589001 0.645337 -0.000001 0.000001 -0.000000 0.755722 -11.750501 -8.550846 1.188196 1.596582 -22.396441 54.262639 -78.780788 24.726489 11.780715 -5.782104 11.783395 -0.998224 -7.755446 -11.833097 -0.261660 -0.008736 -23.513389 0.000001 -0.000005 -0.000002 -0.000000 0.000001 0.000001 9.148216 4.788490 -5.502011 -0.307716 0.093034 0.792938 -0.000000 0.000011 -0.000009 0.000001 -0.000000 -0.000001 0.717163 19.480984 8.880475 -24.759610 10.497194 -1.348295 13.654892 52.121396 2.098531 8.383177 11.087008 -6.840835 -9.044897 -4.841583 -0.400753 7.863192 -19.099536 -2.855719 0.000006 0.000002 -0.000016 0.000001 -0.000001 -0.000000 -1.090217 -1.156368 4.520484 0.142656 -1.117452 16.923657 -0.000003 0.000004 0.000001 -0.000000 -0.000000 -0.000003 -43.873884 1.347719 15.524690 35.551865 0.192130 0.355224 -8.715549 3.140098 -14.569116 5.143395 23.801597 -3.891067 -0.000000 0.000001 -0.000000 -41.108928 -3.560859 -13.255129 44.825442 -9.602835 2.133467 -19.426725 -2.046520 10.676538 4.570072 -7.468750 -0.298157 0.000000 0.000002 -0.000000 
